<?xml version="1.0" encoding="utf-8"?>
<!-- Generator: Adobe Illustrator 16.0.0, SVG Export Plug-In . SVG Version: 6.00 Build 0)  -->
<!DOCTYPE svg PUBLIC "-//W3C//DTD SVG 1.1//EN" "http://www.w3.org/Graphics/SVG/1.1/DTD/svg11.dtd">
<svg version="1.1" id="Layer_1" xmlns="http://www.w3.org/2000/svg" xmlns:xlink="http://www.w3.org/1999/xlink" x="0px" y="0px"
	 width="94.5px" height="45px" viewBox="0 0 94.5 45" enable-background="new 0 0 94.5 45" xml:space="preserve">
<g>
	<rect x="12.44" y="-36.365" fill="#FFFFFF" width="20.282" height="1.489"/>
	<rect x="12.44" y="-31.876" fill="#FFFFFF" width="20.282" height="1.489"/>
	<rect x="12.44" y="-27.387" fill="#FFFFFF" width="20.282" height="1.489"/>
</g>
<g>
	<path fill="#FFFFFF" d="M7.458,41.235c-0.327,0.024-0.672,0.059-0.768,0.191c-0.2,0.271-0.093,0.585-0.063,0.646
		c0.042,0.083,0.334,0.415,0.938,0.393c0.605-0.024,1.008-0.127,1.064-0.358c0.081-0.341,0.061-0.521-0.128-0.666
		c-0.164-0.127-0.533-0.211-0.886-0.211C7.562,41.23,7.51,41.232,7.458,41.235z M21.994,37.816c-0.1-0.06,0.124-0.24,0.124-0.24
		s0.137-0.061,0.401-0.061c0.266,0,1.989,0.007,1.989,0.007c-0.353,0.073-0.379,0.14-0.987,0.241
		c-0.361,0.061-0.625,0.085-0.862,0.098c-0.078,0.004-0.167,0.008-0.252,0.008C22.229,37.869,22.058,37.855,21.994,37.816z
		 M18.417,34.266c0,0-0.01-0.03,0.695-0.135c1.117-0.17,2.278-0.551,3.112-0.831c0.917-0.308,1.47-0.685,1.708-0.547
		c0.236,0.138-0.29,0.252-0.596,0.378c-0.306,0.125-1.738,0.603-2.167,0.728c-0.431,0.126-2.459,0.716-2.751,0.759
		c-0.015,0.003-0.028,0.004-0.04,0.004C18.156,34.621,18.417,34.266,18.417,34.266z M20.097,31.544l0.777-0.587
		c0,0,0.057,0.277-0.151,0.445c-0.159,0.129-0.443,0.143-0.566,0.143C20.12,31.545,20.097,31.544,20.097,31.544z M32.125,2.74
		c-0.221,0.057-1.751,0.173-1.751,0.173s-0.001-0.461-0.556-0.433c0,0-0.477-0.009-0.557,0.574
		c-0.082,0.586-0.191,1.002-0.302,1.309c-0.109,0.306-0.358,1.141-0.412,1.643c-0.054,0.5,0.142,1.168,0.142,1.168
		s-2.054,1.172-2.691,1.843c-0.64,0.667-1.467,2.367-1.577,3.005c-0.11,0.642-0.292,1.253-0.372,2.2c0,0-0.09,1.417-0.061,2.559
		c0.034,1.138,0.145,1.639,0.257,2.085c0.113,0.442,0.31,1.112,0.31,1.112s-0.97,1.393-1.053,1.67
		c-0.083,0.277,0.03,0.668-0.052,0.862c-0.083,0.195-0.693,1.283-0.914,1.728c-0.222,0.443-0.469,1.199-0.411,1.641
		c0.056,0.446,0.002,1.198-0.052,1.531c-0.054,0.334-0.302,1.475-0.302,1.475s-0.5,0.111-0.609,0.391
		c-0.111,0.277-0.108,0.946-0.108,0.946l-6.679,4.911c0,0-1.593,1.236-2.768,2.008c-0.635,0.414-1.267,0.494-2.185,0.511
		c-2.425,0.046-4.019-0.634-4.019-0.634L4.768,38.94c0,0,2.808,0.588,4.068,0.55c1.263-0.038,2.103-0.496,3.047-1.271
		c0.945-0.774,1.889-1.69,1.889-1.69l3.708-3.025c0,0,0.08,0.229,0.106,0.396c0.028,0.166,0.254,0.387,0.254,0.387
		s-0.306,0.334-0.305,0.529c0.001,0.194,0.278,0.445,0.973,0.277c0.696-0.17,5.612-1.992,5.78-2.076
		c0.166-0.082,0.249-0.643,0.275-0.643c0.028,0,0.361-0.332,0.444-0.526c0.082-0.195,0.053-0.67,0.025-0.751
		c-0.028-0.083-0.141-0.277-0.084-0.416c0.056-0.143,0.248-0.697,0.359-1.198c0.108-0.501,0.246-1.392,0.245-1.585
		c0-0.195,0.054-0.418,0.054-0.418l0.751-0.67c0,0,0.165-0.03,0.166,0.11c0,0.142-0.249,0.502-0.359,0.81
		c-0.111,0.305-0.218,1.529-0.299,2.557c-0.081,1.029-0.215,2.336-0.215,2.336s-0.361,0.113-0.444,0.422
		c-0.082,0.304-0.025,0.889-0.025,0.889s-2.388,1.146-2.86,1.453c-0.472,0.309-0.61,0.698-0.61,1.003
		c0.002,0.307,0.059,0.864,0.059,0.864s-0.608,0.557-0.386,0.778c0.223,0.223,1.307,0.138,2.113,0.021
		c0.806-0.115,1.668-0.282,1.668-0.282s0.499-0.559,0.665-0.726c0.167-0.167,0.778-0.336,1.11-0.697
		c0.333-0.364,0.553-1.282,0.774-1.562c0.223-0.277,0.722-0.586,0.833-0.78c0.111-0.192,0.138-0.613,0.137-0.724
		c0-0.111,0.055-0.555,0.219-0.808c0.168-0.251,0.638-1.31,0.914-1.726c0.277-0.416,0.416-0.669,0.47-0.975
		c0.054-0.307,0.164-0.863,0.164-0.863s0.277-0.028,0.471-0.278c0.196-0.251,0.778-0.81,0.778-0.81s0.418,0.305,0.918,0.276
		c0.501-0.03,0.888-0.502,1.387-1.034c0.5-0.527,1.804-2.008,2.217-2.621c0.416-0.61,1.246-1.865,1.496-2.311
		c0.249-0.447,0.304-0.75,1.191-1.116c0.89-0.365,1.194-0.559,2.056-0.84c0.861-0.281,1.639-0.283,1.638-0.562
		c0-0.277-0.476-0.805-0.476-0.805s1.196-0.338,1.444-0.979c0.249-0.639,0.497-1.225,0.383-1.752
		c-0.111-0.527-0.699-1.665-1.118-2.359c-0.419-0.695-1.006-2.056-1.62-2.665c-0.614-0.611-1.953-1.414-3.065-1.938
		c-1.114-0.525-1.28-0.525-2.061-0.83c-0.779-0.304-1.473-0.523-1.473-0.523s-0.034-1.752-0.119-2.502
		c-0.086-0.75-0.618-1.667-0.981-2.194c-0.361-0.529-0.224-0.611-0.724-0.637c-0.023-0.001-0.045-0.002-0.066-0.002
		C32.294,2.431,32.336,2.687,32.125,2.74z M2,2.22l0.086,30.219l10.857-0.032l-0.031-10.901l9.398-0.028l1.029-1.695
		c0,0-0.542-1.953-0.573-3.334c-0.03-1.348,0.318-3.48,0.318-3.48l-10.198,0.03L12.856,2.189L2,2.22z M35.918,2.122L35.933,7
		c0,0,2.521,1.033,3.968,1.808c1.904,1.019,2.551,1.921,3.459,3.632c0.279,0.53,0.838,1.446,1.229,2.195s0.56,1.444,0.507,1.972
		c-0.055,0.529-0.329,1.336-0.663,1.976c-0.332,0.642-0.775,0.755-0.775,0.755s0.029,0.222,0.029,0.499s-0.195,0.614-0.552,0.864
		c-0.363,0.25-0.723,0.335-1.725,0.562c-1,0.224-2.278,0.869-2.388,0.923c-0.113,0.057-0.471,0.781-0.998,1.615
		c-0.524,0.837-2.035,2.689-2.035,2.689l0.017,5.851l10.929-0.03L46.848,2.092L35.918,2.122z M61.76,9.586
		c0,0,11.69-0.005,14.091-0.012c2.399-0.006,3.962,0.019,4.83,0.659c1.145,0.846,1.074,2.17,1.077,2.91
		c0.001,0.742,0.007,2.401-0.821,3.321c-0.828,0.921-2.961,0.809-2.961,0.809l-16.193,0.046L61.76,9.586z M77.976,2.001
		L51.393,2.078l0.087,30.219l10.345-0.029l-0.021-7.394c0,0,15.516-0.046,17.629-0.052c2.114-0.006,6.578-0.066,9.172-1.695
		c2.949-1.849,3.324-5.014,3.365-10.357c0.04-5.344-1.111-7.653-3.514-9.187C86.114,2.087,79.74,2,78.277,2
		C78.083,2,77.976,2.001,77.976,2.001z"/>
	<path fill="#FFFFFF" d="M89.689,37.356h1.258l1.363-2.843h-1.317l-0.67,1.823h-0.009l-0.666-1.823h-1.321L89.689,37.356z
		 M85.727,37.356h3.06v-0.765h-1.859v-2.078h-1.2V37.356z M84.007,37.356h1.115v-0.892h-1.115V37.356z M81.948,36.342
		c0.165,0.027,0.217,0.106,0.217,0.19c0,0.14-0.102,0.23-0.477,0.23c-0.183,0-0.319-0.021-0.409-0.059
		c-0.079-0.045-0.122-0.112-0.127-0.204h-1.447c0,0.836,1.018,0.957,1.937,0.957c1.349,0,1.954-0.323,1.954-1.02
		c0-0.482-0.371-0.745-0.979-0.829l-1.434-0.198c-0.12-0.017-0.157-0.068-0.157-0.148c0-0.124,0.123-0.203,0.48-0.203
		c0.131,0,0.268,0.016,0.375,0.061c0.114,0.043,0.183,0.111,0.183,0.227h1.396c-0.047-0.602-0.6-0.932-1.953-0.932
		c-0.987,0-1.758,0.199-1.758,0.936c0,0.398,0.238,0.717,0.83,0.8L81.948,36.342z M76.509,37.356h3.061v-0.765h-1.861v-2.078h-1.199
		V37.356z M72.296,37.356h1.276l0.128-0.327h1.25l0.129,0.327h1.277l-1.295-2.843h-1.471L72.296,37.356z M74.688,36.337h-0.724
		l0.358-0.964h0.008L74.688,36.337z M70.982,37.356h1.596l-1.473-1.743l1.357-1.1h-1.592l-1.115,1.004v-1.004h-1.198v2.843h1.198
		v-0.765l0.396-0.327L70.982,37.356z M66.755,37.356h1.201v-2.843h-1.201V37.356z M63.118,37.356h3.229v-0.692h-2.03v-0.383h1.886
		v-0.692h-1.886v-0.383h2.03v-0.692h-3.229V37.356z M60.38,37.356h1.261l1.361-2.843h-1.319l-0.667,1.823h-0.009l-0.668-1.823h-1.32
		L60.38,37.356z M55.513,37.356h1.276l0.127-0.327h1.252l0.128,0.327h1.275l-1.293-2.843h-1.473L55.513,37.356z M57.905,36.337
		h-0.724l0.358-0.964h0.007L57.905,36.337z M54.219,36.321c0,0.314-0.111,0.441-0.366,0.441c-0.17,0-0.256-0.047-0.307-0.147
		c-0.051-0.099-0.055-0.246-0.055-0.45h-1.2c0,1.024,0.468,1.292,1.634,1.292c1.281,0,1.495-0.495,1.495-1.221v-1.723h-1.201V36.321
		z M48.934,37.356h3.23v-0.692h-2.029v-0.383h1.884v-0.692h-1.884v-0.383h2.029v-0.692h-3.23V37.356z M47.185,37.356h1.596
		l-1.472-1.743l1.356-1.1h-1.591l-1.114,1.004v-1.004h-1.201v2.843h1.201v-0.765l0.396-0.327L47.185,37.356z M41.457,35.935
		c0-0.577,0.306-0.804,0.8-0.804c0.493,0,0.8,0.227,0.8,0.804c0,0.579-0.307,0.806-0.8,0.806
		C41.763,36.74,41.457,36.514,41.457,35.935z M40.18,35.935c0,1.478,1.349,1.522,2.077,1.522c0.727,0,2.076-0.049,2.076-1.522
		c0-1.472-1.349-1.521-2.076-1.521C41.529,34.414,40.18,34.463,40.18,35.935z M38.554,37.356h1.201v-2.843h-1.201v0.988h-1.349
		v-0.988h-1.2v2.843h1.2v-1.138h1.349V37.356z"/>
</g>
<g>
	<g>
		<path fill="#FFFFFF" d="M76.395-33.443c0-3.195-2.591-5.785-5.785-5.785c-3.195,0-5.785,2.59-5.785,5.785s2.59,5.785,5.785,5.785
			C73.804-27.658,76.395-30.248,76.395-33.443z M70.609-29.104c-2.393,0-4.339-1.947-4.339-4.339c0-2.393,1.946-4.339,4.339-4.339
			s4.339,1.946,4.339,4.339C74.948-31.051,73.002-29.104,70.609-29.104z"/>
		<path fill="#FFFFFF" d="M79.827-26.27l-3.539-3.539c-0.528,0.82-1.226,1.518-2.046,2.045l3.54,3.539
			c0.565,0.564,1.481,0.564,2.045,0C80.393-24.789,80.393-25.705,79.827-26.27z"/>
	</g>
</g>
<g>
	<path fill="none" stroke="#FFFFFF" stroke-width="0.5" stroke-miterlimit="10" d="M253.958-27.42
		c-0.006-0.034,0.006-0.166,0.014-0.276c0.004-0.036,0.008-0.113,0.008-0.132c0-0.061-0.224-0.25-0.249-0.281
		c-0.025-0.029,0.059-0.285,0.05-0.344c-0.008-0.059-0.273-0.106-0.332-0.178c-0.06-0.072-0.06-0.409-0.064-0.46
		c-0.004-0.051-0.193-0.216-0.205-0.241c-0.014-0.025-0.115-0.046-0.174-0.037c-0.059,0.008-0.012-0.174-0.012-0.225
		c0-0.05,0.092-0.164,0.122-0.235c0.028-0.072-0.32-0.249-0.32-0.249s0,0-0.021-0.008c-0.021-0.009-0.215,0.024-0.282,0.055
		c-0.067,0.029-0.193,0.076-0.228,0.08s-0.004-0.194-0.009-0.245c-0.004-0.05,0.098-0.084,0.118-0.088
		c0.021-0.005,0.105-0.286,0.14-0.342c0.033-0.055,0-0.155-0.051-0.186c-0.051-0.029,0.062-0.265,0.062-0.32
		c0-0.055-0.168-0.228-0.193-0.261s0.324-0.15,0.379-0.172c0.018-0.006,0.033-0.09,0.047-0.162c0.03-0.257,0.051-0.646,0.051-0.672
		c0-0.038-0.366-0.192-0.408-0.205c-0.043-0.013-0.199-0.235-0.211-0.286c-0.014-0.051-0.32-0.227-0.348-0.24
		c-0.026-0.013-0.049-0.061-0.011-0.183c0.038-0.123-0.03-0.259-0.042-0.305c-0.014-0.046-0.274,0.008-0.325,0.012
		c-0.05,0.004-0.202,0.034-0.257,0.042c-0.056,0.008-0.223-0.051-0.309-0.081c-0.084-0.029-0.425-0.076-0.471-0.088
		c-0.047-0.012-0.199-0.236-0.224-0.287c-0.025-0.051-0.156-0.021-0.202-0.008c-0.047,0.013-0.102-0.042-0.145-0.055
		c-0.041-0.013-0.083,0.004-0.096,0.13c-0.013,0.127-0.156,0.194-0.211,0.207c-0.055,0.012-0.092-0.034-0.118-0.046
		c-0.024-0.014-0.231,0.134-0.291,0.172c-0.059,0.039-0.046,0.119-0.051,0.147c-0.003,0.03-0.024-0.008-0.088-0.038
		c-0.063-0.03-0.075,0.004-0.144,0.029c-0.067,0.025-0.156-0.181-0.207-0.228c-0.05-0.046-0.459-0.194-0.506-0.218
		c-0.018-0.011-0.074-0.108-0.137-0.224c-0.205,0.411-0.648,0.626-1.119,0.748c-0.002,0.035-0.002,0.069-0.006,0.105
		c-0.029,0.307-0.42,0.368-0.545,0.157c-0.486,0.435-1.066,0.667-1.732,0.502c-0.768-0.191-1.227-0.705-1.561-1.396
		c-0.166-0.342-0.336-0.887-0.674-1.137c-0.035,0.073-0.059,0.201-0.059,0.372c0,0.287,0.109,0.38,0.178,0.532
		c0.066,0.151,0.135,0.429,0.084,0.657s0.051,0.75,0.051,0.75s0.067,0.858,0.067,0.933c0,0.025-0.046,0.09-0.11,0.2
		c-0.133,0.146-0.348,0.361-0.422,0.44c-0.109,0.118-0.454,0.313-0.505,0.339c-0.052,0.025-0.151,0.018-0.151,0.186
		c0,0.169-0.254,0.174-0.43,0.291c-0.178,0.118-0.432,0.092-0.432,0.092c-0.159,0.003-0.328-0.064-0.387-0.077
		s-0.197-0.216-0.223-0.278c-0.025-0.063-0.253-0.039-0.301-0.039c-0.045,0-0.104-0.109-0.18-0.131s-0.203-0.176-0.203-0.176
		s-0.067-0.096-0.067-0.219c0-0.115-0.136-0.392-0.188-0.428c-0.004,0-0.007-0.037-0.01-0.04c-0.045-0.034-0.033-0.331-0.033-0.386
		c0-0.055-0.06-0.316-0.076-0.396c-0.016-0.08-0.24-0.119-0.32-0.207c-0.08-0.089-0.197-0.179-0.282-0.212
		c-0.084-0.034-0.173-0.33-0.206-0.372c-0.034-0.042-0.274-0.187-0.338-0.211c-0.062-0.026-0.328-0.405-0.361-0.464
		c-0.034-0.059-0.039-0.24-0.039-0.32c0-0.08,0.043-0.346,0.039-0.362c-0.005-0.017-0.258,0.055-0.321,0.055
		s-0.286,0.177-0.388,0.236c-0.101,0.06-0.308,0.08-0.363,0.123c-0.054,0.042-0.088,0.067-0.223,0.092
		c-0.134,0.025-0.105,0.085-0.15,0.076c-0.048-0.008-0.245,0.156-0.292,0.198c-0.046,0.042-0.35-0.008-0.45,0.029
		c-0.102,0.038-0.24,0.034-0.325,0.034c-0.084,0-0.417,0.577-0.456,0.682c-0.037,0.105-0.34,0.578-0.361,0.696
		c-0.021,0.118-0.139,0.126-0.186,0.155c-0.046,0.03-0.025,0.381-0.021,0.453c0.002,0.029,0,0.066-0.006,0.141
		c-0.008,0.036-0.022,0.086-0.045,0.137c-0.037,0.089-0.004,0.414,0.005,0.494c0.009,0.081-0.089,0.264-0.169,0.393
		c-0.08,0.131-0.16,0.137-0.193,0.148c-0.033,0.014-0.08,0.116-0.105,0.167s-0.193,0.147-0.223,0.196
		c-0.03,0.051-0.249,0.215-0.371,0.248s-0.064,0.515-0.059,0.629c0.003,0.113-0.178,0.725-0.199,0.83
		c-0.021,0.105,0.089,0.257,0.148,0.312c0.059,0.055,0.017,0.138,0.017,0.272c0,0.072-0.003,0.23-0.013,0.23h-0.096
		c-0.003,0-0.004-0.13-0.006-0.168c-0.004-0.096-0.029-0.197-0.059-0.227s-0.076-0.032-0.064,0.086
		c0.008,0.063,0.002,0.211-0.016,0.284c-0.016,0.073-0.039,0.156-0.072,0.195c-0.071,0.083-0.013,0.138,0.021,0.318
		c0.033,0.182-0.051,0.494-0.059,0.608c-0.009,0.113,0.055,0.222,0.113,0.302c0.059,0.079,0.063,0.206,0.072,0.332
		c0.008,0.126,0.375,0.104,0.45,0.104s0.151-0.333,0.151-0.408c0-0.076,0.325-0.305,0.359-0.371
		c0.033-0.067,0.105-0.043,0.185-0.004c0.08,0.037,0.333-0.249,0.413-0.283c0.08-0.033,0.109-0.151,0.122-0.177
		c0.013-0.026,0.282,0.063,0.363,0.063c0.079,0,0.146-0.148,0.214-0.148c0.068,0,0.102-0.024,0.173-0.092s0.211-0.063,0.278-0.063
		c0.068,0,0.143-0.063,0.266-0.169c0.122-0.105,0.303-0.055,0.426-0.062c0.122-0.01,0.211,0.041,0.248,0.109
		c0.039,0.067,0.287,0.029,0.523,0.025s0.455,0.076,0.518,0.08c0.063,0.004,0.232,0.16,0.283,0.181s0.198-0.071,0.316-0.071
		c0.117,0,0.067,0.025,0.244-0.135s0.211-0.059,0.286-0.059s0.16,0.248,0.182,0.354c0.021,0.105,0.118,0.146,0.186,0.206
		c0.066,0.06,0.146-0.101,0.197-0.139s0.055-0.093,0.034-0.147c-0.021-0.055,0.248-0.076,0.333-0.08s0.249,0.062,0.308,0.102
		c0.059,0.037,0.388,0.104,0.451,0.15c0.062,0.047,0.13-0.05,0.168-0.134c0.038-0.085,0.384,0.017,0.412,0.017
		c0.031,0,0.031,0.043,0.022,0.105s0.177-0.029,0.244-0.055s0.515,0.105,0.569,0.105s0.135,0.104,0.156,0.206
		c0.021,0.101,0.16,0.106,0.248,0.147c0.088,0.042,0.518-0.228,0.568-0.231c0.051-0.005,0.312,0.173,0.43,0.194
		c0.118,0.02,0.211-0.098,0.24-0.145c0.03-0.046,0.166-0.197,0.229-0.219s0.042-0.102,0.071-0.143
		c0.03-0.043,0.147-0.085,0.19-0.131c0.041-0.047,0.146-0.026,0.201-0.03s0.139-0.117,0.207-0.122
		c0.066-0.004-0.018-0.135,0.098-0.168c0.113-0.034,0.256,0.674,0.281,0.763c0.025,0.088,0.098,0.147,0.144,0.151
		s0.114,0.147,0.118,0.278s0.109,0.101,0.215,0.189s0.224,0.047,0.295,0.025c0.071-0.021,0.291,0.063,0.379,0.109
		c0.089,0.046,0.169-0.005,0.203-0.013c0.033-0.008,0.097,0.013,0.177,0.029c0.08,0.018,0.104-0.008,0.147-0.054
		c0.042-0.048,0.143,0.096,0.197,0.122c0.055,0.024,0.174-0.005,0.22-0.005s0.067,0.16,0.085,0.258
		c0.017,0.097,0.062,0.104,0.139,0.13s0.312,0.27,0.367,0.379c0.054,0.109,0.446,0.253,0.534,0.283
		c0.089,0.029,0.161,0.219,0.177,0.273c0.018,0.055,0.178,0.109,0.253,0.148c0.077,0.037,0.182,0.281,0.194,0.391
		c0.013,0.11,0.231,0.229,0.27,0.296s0.131,0.104,0.194,0.109s0.155,0.071,0.266,0.114c0.109,0.041,0.332,0.101,0.375,0.097
		c0.042-0.005,0.131-0.144,0.151-0.155c0.021-0.014,0.236,0.028,0.287,0.059c0.051,0.029,0.273-0.08,0.342-0.109
		c0.066-0.031,0.104-0.338,0.104-0.396s0.236-0.262,0.279-0.309c0.042-0.046,0.228-0.024,0.346-0.05s0.459,0.155,0.518,0.22
		c0.06,0.064,0.16-0.034,0.199-0.123c0.037-0.088,0.08,0.004,0.104,0.055c0.026,0.051,0.522,0.072,0.628,0.067
		c0.105-0.004,0.113-0.21,0.16-0.253c0.047-0.042,0.008-0.408,0-0.472s0.333-0.312,0.418-0.366c0.084-0.055,0.025-0.182,0.029-0.225
		c0.004-0.041,0.207-0.139,0.266-0.143s0.092-0.252,0.104-0.295s0.202-0.063,0.304-0.131s0.244-0.186,0.258-0.219
		c0.012-0.033,0.101,0.059,0.138,0.055c0.038-0.004,0.094-0.291,0.077-0.371c-0.018-0.08,0.062-0.173,0.097-0.189
		C254.19-26.867,253.966-27.37,253.958-27.42z"/>
	<g>
		<path fill="#FFFFFF" d="M244.936-38.56c-1.87,0-3.383,1.512-3.383,3.382c0,0.973,0.486,1.855,0.965,2.668
			c0.586,1.01,1.285,1.954,2.098,2.79c0.175,0.183,0.465,0.183,0.646,0c0.715-0.707,1.346-1.505,1.878-2.356
			c0.57-0.92,1.186-1.984,1.186-3.102C248.319-37.04,246.805-38.56,244.936-38.56z M244.936-33.216c-1.133,0-2.053-0.92-2.053-2.053
			c0-1.132,0.92-2.052,2.053-2.052s2.053,0.912,2.053,2.052S246.069-33.216,244.936-33.216z"/>
	</g>
</g>
<g>
	<g>
		<path fill="#FFFFFF" d="M305.307-36.586l-12.955,0.005l0.183-2.057h-3.753v1.433h1.102h1.084l-0.059,0.668l-0.31,3.465h-6.234
			v1.434h6.106l-0.094,1.061h-2.847v1.434h2.718l-0.059,0.66h12.217L305.307-36.586z M291.757-29.916l0.153-1.721h1.174v-1.434
			h-1.046l0.185-2.077l11.048-0.004l-1.874,5.236H291.757z"/>
		<path fill="#FFFFFF" d="M298.195-24.174c0.368,0.436,0.927,0.688,1.531,0.688c1.185,0,2.27-0.924,2.47-2.104
			c0.104-0.609-0.051-1.213-0.425-1.656c-0.368-0.438-0.927-0.688-1.531-0.688h-8.259c-1.186,0-2.27,0.924-2.471,2.104
			c-0.104,0.609,0.051,1.213,0.426,1.656c0.368,0.436,0.927,0.688,1.531,0.688c1.184,0,2.269-0.924,2.47-2.104
			c0.054-0.312,0.038-0.623-0.038-0.91h4.09c-0.104,0.209-0.18,0.434-0.219,0.67C297.666-25.221,297.821-24.617,298.195-24.174z
			 M292.417-26.322c0.103,0.123,0.141,0.297,0.107,0.492c-0.083,0.484-0.576,0.91-1.057,0.91c-0.188,0-0.338-0.062-0.437-0.18
			c-0.103-0.121-0.141-0.295-0.106-0.49c0.082-0.484,0.576-0.91,1.057-0.91C292.167-26.5,292.317-26.438,292.417-26.322z
			 M300.676-26.322c0.102,0.123,0.141,0.297,0.107,0.492c-0.082,0.484-0.577,0.91-1.058,0.91c-0.187,0-0.337-0.062-0.436-0.18
			c-0.103-0.121-0.14-0.295-0.107-0.49c0.083-0.484,0.577-0.91,1.057-0.91C300.426-26.5,300.577-26.438,300.676-26.322z"/>
		<rect x="286.106" y="-35.47" fill="#FFFFFF" width="3.854" height="1.434"/>
	</g>
</g>
</svg>
