<svg xmlns="http://www.w3.org/2000/svg" xml:space="preserve" width="100%" height="100%" version="1" viewBox="0 0 2904 593" shape-rendering="geometricPrecision" text-rendering="geometricPrecision" image-rendering="optimizeQuality" fill-rule="evenodd" clip-rule="evenodd"><defs><style type="text/css">.fil2{fill:#0055a0}.fil3{fill:#434242}.fil1{fill:red}.fil0,.fil4,.fil5{fill:#898989;fill-rule:nonzero}.fil0,.fil4{fill:#9d9e9e}.fil4{fill:#c5c6c6}</style></defs><g id="Layer_x0020_1"><path class="fil0" d="M24 521c2 0 5 0 7-1s4-2 6-4l5 5c-5 5-11 8-18 8s-13-2-17-7c-5-4-7-10-7-17 0-6 2-12 7-17 5-4 10-6 17-6 8 0 13 2 18 8l-5 5c-2-2-4-4-6-5-2 0-4-1-7-1-4 0-8 2-11 5s-5 7-5 11c0 5 2 9 5 12s6 4 11 4zm33-2c2 2 5 3 8 3s6-1 8-3 3-5 3-8-1-6-3-8-5-3-8-3-6 1-8 3-3 5-3 8 1 6 3 8zm21 5c-3 3-8 5-13 5s-10-2-13-5c-4-4-5-8-5-13s1-9 5-13c3-3 8-5 13-5s10 2 13 5c3 4 5 8 5 13s-2 9-5 13zm32-31c5 0 9 2 12 5s5 8 5 13-2 10-5 13-7 5-11 5c-5 0-9-2-12-6v18h-7v-47h7v6c3-5 6-7 11-7zm-11 18c0 3 1 6 3 8s4 3 7 3 5-1 8-3c2-2 3-5 3-8s-1-6-3-8-5-3-8-3-5 1-7 3-3 5-3 8zm41 31c-3 0-6-1-9-3l3-6c2 1 4 2 5 2 2 0 3-1 4-2s2-2 2-4c0 0-5-12-14-35h8l10 25 10-25h8l-17 41c-1 2-2 4-4 5-2 2-4 2-6 2zm51-41c-3 0-6 1-8 3s-3 6-3 10v14h-7v-34h7v7c1-3 3-4 5-6 2-1 4-2 6-2l1 8h-1zm15 27h-7v-34h7v34zm-7-41c-1-1-1-2-1-4 0-1 0-2 1-3s2-1 4-1c1 0 2 0 3 1s1 2 1 3c0 2 0 3-1 4s-2 1-3 1c-2 0-3 0-4-1zm50 7v30c0 6-2 11-5 14s-8 4-13 4-10-1-14-5l3-5c4 3 7 4 11 4 3 0 6-1 8-3s3-5 3-8v-5c-1 2-3 4-5 5s-4 2-7 2c-4 0-8-2-11-5s-4-7-4-12 1-9 4-12 7-5 11-5c5 0 9 2 12 6v-5h7zm-27 16c0 3 1 5 2 7 2 2 5 3 8 3 2 0 5-1 7-3s3-4 3-7-1-6-3-8-5-3-8-3c-2 0-5 1-7 3-1 2-2 5-2 8zm45 0v18h-8v-48h8v20c1-2 2-4 4-5 3-1 5-2 7-2 4 0 7 1 10 4 2 2 3 6 3 10v21h-7v-19c0-6-3-9-8-9-2 0-5 1-6 2-2 2-3 4-3 8zm44-10v17c0 2 0 3 1 4s2 2 4 2c1 0 3-1 4-3l3 5c-2 3-5 4-8 4-4 0-6-1-8-3-3-2-4-5-4-9v-17h-4v-6h4v-11h8v11h9v6h-9zm74-11c5 4 7 10 7 17 0 6-2 12-7 16-4 5-10 7-16 7-7 0-13-2-17-7-5-4-7-10-7-16 0-7 2-12 7-17s10-7 17-7c6 0 12 2 16 7zm-2 31c4-4 6-9 6-14 0-6-2-11-6-15s-8-6-14-6-11 2-15 6-6 9-6 15c0 5 2 10 6 14s9 6 15 6c5 0 10-2 14-6zm-3-6c-3 3-7 4-11 4-3 0-6-1-9-3-3-3-4-6-4-9 0-4 2-8 4-10 3-2 6-3 10-3s7 1 9 3l-3 4c-2-2-4-3-6-3-3 0-4 1-6 3-2 1-3 3-3 5 0 3 1 5 3 6 2 2 4 3 6 3s4-1 6-4l4 4zm51-6l7-7c1-2 2-4 2-6s-1-3-2-4c-2-2-3-2-5-2-4 0-7 2-10 5l-6-3c2-3 4-6 7-7 2-2 5-2 9-2s7 1 10 3c3 3 4 6 4 10 0 3 0 5-2 7-1 2-3 5-6 8l-11 11h21v7h-31v-6l13-14zm35-15c-2 3-3 7-3 12s1 10 3 13 5 4 9 4c3 0 6-1 8-4s3-8 3-13-1-9-3-12-5-5-8-5c-4 0-7 2-9 5zm-5 30c-3-5-5-11-5-18s2-13 5-17 7-6 14-6c6 0 11 2 14 6s4 10 4 17-1 13-4 18c-3 4-8 6-14 6-7 0-11-2-14-6zm38-40h17v45h-8v-38h-9v-7zm37 10c-2 3-3 7-3 12s1 10 3 13 5 4 8 4c4 0 7-1 9-4s2-8 2-13 0-9-2-12-5-5-9-5c-3 0-6 2-8 5zm-6 30c-3-5-4-11-4-18s1-13 4-17c4-4 8-6 14-6 7 0 11 2 14 6 4 4 5 10 5 17s-1 13-5 18c-3 4-7 6-14 6-6 0-10-2-14-6zm42-11v-6h21v6h-21zm42-4l7-7c1-2 2-4 2-6s-1-3-2-4c-2-2-3-2-5-2-4 0-7 2-10 5l-6-3c2-3 4-6 7-7 2-2 5-2 9-2s7 1 10 3c3 3 4 6 4 10 0 3 0 5-1 7-2 2-4 5-7 8l-11 11h21v7h-31v-6l13-14zm35-15c-2 3-2 7-2 12s0 10 2 13 5 4 9 4 6-1 8-4 3-8 3-13-1-9-3-12-4-5-8-5-7 2-9 5zm-5 30c-3-5-5-11-5-18s2-13 5-17 7-6 14-6c6 0 11 2 14 6s4 10 4 17-1 13-4 18c-3 4-8 6-14 6-7 0-11-2-14-6zm38-40h17v45h-8v-38h-9v-7zm33 2c3-2 6-3 11-3 4 0 8 1 11 3 3 3 4 6 4 9 0 4-1 7-5 9 5 3 7 7 7 12 0 4-2 7-5 10s-7 4-12 4-9-1-13-4c-3-3-4-6-4-10 0-5 2-9 6-12-3-2-5-5-5-9 0-3 2-6 5-9zm4 35c2 2 5 2 7 2s4 0 6-2c2-1 3-3 3-5 0-3-1-4-3-6-2-1-4-2-6-2-3 0-5 1-7 2-2 2-3 3-3 6 0 2 1 4 3 5zm1-20c2 1 4 2 6 2s4-1 6-2c1-2 2-3 2-5s-1-4-2-5c-2-1-4-2-6-2s-4 1-6 2-2 3-2 5 0 3 2 5zm66-17c9 0 15 2 19 6 5 4 7 9 7 16s-2 13-6 17c-5 4-11 6-20 6h-15v-45h15zm18 23c0-11-6-16-18-16h-7v31h8c6 0 10-1 13-4 3-2 4-6 4-11zm50-23v7h-24v12h21v7h-21v12h25v7h-33v-45h32zm31 38c3 0 5 0 7-1s4-2 6-4l5 5c-5 5-10 8-17 8s-13-2-18-7c-4-4-6-10-6-17 0-6 2-12 7-17 4-4 10-6 17-6s13 2 18 8l-5 5c-2-2-4-4-6-5-2 0-4-1-7-1-5 0-8 2-12 5-3 3-4 7-4 11 0 5 1 9 4 12s7 4 11 4zm34-3l-4 10h-9l20-45h9l20 45h-8l-5-10h-23zm20-7l-8-19-9 19h17zm22 17v-45h8v38h21v7h-29zm37 0v-45h8v38h21v7h-29zm43-10l-4 10h-8l20-45h8l20 45h-8l-5-10h-23zm20-7l-8-19-8 19h16zm42 17h-20v-45h18c3 0 6 0 8 1s4 2 5 3c2 2 3 5 3 8s-1 6-3 8c-1 0-1 1-2 1 0 0-1 0-1 1 2 0 5 2 6 4 2 1 3 4 3 7s-1 6-3 8c-3 3-7 4-14 4zm-12-26h10c6 0 8-2 8-6 0-2 0-4-2-5-1-1-3-1-6-1h-10v12zm0 19h12c3 0 5 0 7-1 1-1 2-3 2-5 0-4-3-6-10-6h-11v12zm38 7c-1-1-1-3-1-4s0-2 1-3 2-2 3-2c2 0 3 1 4 2s1 2 1 3 0 3-1 4c-1 0-2 1-4 1-1 0-2-1-3-1zm43-10l-4 10h-9l21-45h8l20 45h-8l-5-10h-23zm20-7l-8-19-9 19h17zm28 17h-7v-48h7v48zm18 0h-7v-48h7v48zm47-27c-4 0-6 1-8 3s-3 6-3 10v14h-7v-34h7v7c1-3 3-4 5-6 2-1 4-2 6-2v8zm15 27h-7v-34h7v34zm-7-41c-1-1-1-2-1-4 0-1 0-2 1-3s2-1 3-1c2 0 3 0 4 1s1 2 1 3c0 2 0 3-1 4s-2 1-4 1c-1 0-2 0-3-1zm50 7v30c0 6-2 11-5 14-4 3-8 4-13 4s-10-1-14-5l3-5c4 3 7 4 11 4 3 0 6-1 8-3s3-5 3-8v-5c-1 2-3 4-5 5s-4 2-7 2c-4 0-8-2-11-5s-5-7-5-12 2-9 5-12 7-5 11-5c5 0 9 2 11 6v-5h8zm-27 16c0 3 1 5 2 7 2 2 4 3 7 3s6-1 8-3 2-4 2-7 0-6-2-8-5-3-8-3-5 1-7 3c-1 2-2 5-2 8zm45 0v18h-8v-48h8v20c1-2 2-4 4-5 3-1 5-2 7-2 4 0 7 1 10 4 2 2 3 6 3 10v21h-7v-19c0-6-3-9-8-9-2 0-5 1-7 2-1 2-2 4-2 8zm44-10v17c0 2 0 3 1 4s2 2 4 2c1 0 3-1 4-3l3 5c-3 3-5 4-8 4-4 0-6-1-8-3-3-2-4-5-4-9v-17h-4v-6h4v-11h8v11h9v6h-9zm43 18c0 3-2 6-4 8s-5 3-9 3c-3 0-5-1-8-1-3-1-5-3-7-4l3-6c4 3 8 5 12 5 2 0 3-1 4-2 1 0 1-1 1-2 0-2-2-4-7-5-8-2-11-6-11-10 0-3 1-6 4-8 2-2 5-3 9-3s8 1 12 4l-3 5c-3-2-6-3-9-3-2 0-3 1-5 1-1 1-1 2-1 3s0 2 2 3c0 0 1 0 3 1 1 0 3 0 4 1 1 0 2 0 3 1 1 0 2 1 3 2 2 1 4 4 4 7zm44-17c-4 0-6 1-8 3s-3 6-3 10v14h-7v-34h7v7c1-3 3-4 5-6 2-1 4-2 6-2v8zm40 13h-27c0 3 1 5 3 6 2 2 5 3 8 3 4 0 7-2 9-4l5 4c-4 4-9 6-15 6-5 0-9-2-12-5-4-3-6-8-6-13s2-10 6-13c3-3 7-5 12-5s9 2 12 4c3 3 5 7 5 12v5zm-27-5h20c0-3-1-6-3-7-2-2-4-3-7-3-2 0-5 1-7 3s-3 4-3 7zm60 9c0 3-1 6-4 8-2 2-5 3-9 3-3 0-5-1-8-1-3-1-5-3-7-4l3-6c4 3 8 5 12 5 2 0 3-1 4-2 1 0 2-1 2-2 0-2-3-4-7-5h-1c-7-2-11-6-11-10 0-3 1-6 4-8 2-2 6-3 10-3s7 1 11 4l-3 5c-3-2-6-3-9-3-2 0-3 1-4 1-1 1-2 2-2 3s1 2 2 3c1 0 2 0 3 1 1 0 3 0 4 1 1 0 2 0 3 1 1 0 2 1 3 2 3 1 4 4 4 7zm40-4h-27c0 3 2 5 4 6 2 2 4 3 7 3 4 0 8-2 10-4l4 4c-4 4-9 6-15 6-4 0-9-2-12-5s-5-8-5-13 2-10 5-13c4-3 8-5 12-5 5 0 9 2 12 4 4 3 5 7 5 12v5zm-27-5h20c0-3-1-6-3-7-1-2-4-3-6-3-3 0-5 1-8 3-2 2-3 4-3 7zm54-8c-4 0-7 1-8 3-2 2-3 6-3 10v14h-8v-34h8v7c1-3 3-4 5-6 2-1 4-2 6-2v8zm17 27l-14-34h7l11 26 10-26h8l-14 34h-8zm60-14h-27c0 3 1 5 3 6 2 2 5 3 8 3 4 0 7-2 10-4l4 4c-4 4-9 6-15 6-5 0-9-2-12-5-4-3-5-8-5-13s1-10 5-13c3-3 7-5 12-5s9 2 12 4c3 3 5 7 5 12v5zm-27-5h20c0-3-1-6-3-7-2-2-4-3-7-3-2 0-5 1-7 3s-3 4-3 7zm49 20c-4 0-8-2-11-5-4-3-5-8-5-13s2-10 5-13 7-5 12-5 8 2 11 6v-19h7v48h-7v-5c-3 4-7 6-12 6zm-9-18c0 4 1 6 3 8 3 2 5 3 8 3s5-1 7-3 3-5 3-8-1-6-3-8-4-3-7-3-6 1-8 3-3 5-3 8zm39 17c-1-1-1-3-1-4s0-2 1-3 2-2 4-2c1 0 2 1 3 2s2 2 2 3-1 3-2 4c-1 0-2 1-3 1-2 0-3-1-4-1z"/><path class="fil1" d="M2828 164l-245 55c-2 0-4-1-5-3l-43-117c0-1 0-3 1-4s2-2 3-2h206l85 65c1 2 1 5-2 6z"/><path class="fil2" d="M2524 99l-69 146c0 2-1 3-3 3l-177 37 129 60c2 1 3 4 2 6l-70 148c-1 2-2 3-4 3h-189c-1 0-2-1-3-3-1-1-1-2-1-4l188-400c0-1 2-2 4-2h189c1 0 3 1 4 2v4z"/><path class="fil1" d="M2630 448l-26-144c-1-2 0-4 2-5l212-121c1-1 3-1 5 0 1 2 2 4 1 5-1 3-3 6-4 9l-82 174c0 1-1 1-2 2l-40 16h204c1 0 3 1 3 2 1 1 1 3 1 4l-51 109c-1 2-2 3-4 3h-495c-2 0-4-2-4-3-1-2 0-4 1-5l139-109c2-1 3-1 5-1l135 64z"/><path class="fil3" d="M2825 91c3 0 6 1 9 2 3 2 5 4 7 7 1 3 2 6 2 9s-1 6-2 9c-2 3-4 5-7 7-3 1-6 2-9 2s-6-1-9-2c-3-2-5-4-7-7-1-3-2-6-2-9s1-6 3-9c1-3 3-5 6-7 3-1 6-2 9-2zm0 4c-2 0-5 0-7 1-2 2-4 3-5 6-2 2-2 5-2 7 0 3 0 5 2 7 1 3 3 4 5 6 2 1 5 2 7 2 3 0 5-1 7-2 3-2 4-3 6-6 1-2 2-4 2-7 0-2-1-5-2-7-2-3-3-4-6-6-2-1-4-1-7-1zm-8 24v-19h13l2 2c0 1 1 2 1 3s-1 3-2 4-2 1-4 1c1 1 1 1 2 1 0 0 0 1 1 2 0 0 1 1 1 2l3 4h-5l-2-3-2-4c-1-1-2-1-3-1h-1v8h-4zm4-11h6c0-1 1-1 1-1v-2-1c0-1-1-1-1-1h-6v5z"/><path class="fil4" d="M1934 592L2207 1h-25l-273 591h25z"/><path class="fil5" d="M1777 114c5 0 10 1 15 4 5 2 9 6 11 11 3 5 5 10 5 16 0 5-2 10-4 15-3 5-7 8-12 11s-10 4-15 4-11-1-15-4c-5-3-9-6-12-11-2-5-4-10-4-15 0-6 2-11 4-16 3-5 7-9 12-11 5-3 10-4 15-4zm-550 48h-48l-106 225h146l26-56h-116l23-9c25-54 50-107 75-160zm127 0l-105 225h48l40-85h110l-39 85h48l106-225h-208zm119 84l-110 1 14-30h110l-14 29zm-422-84h-48L898 387h146l26-56H954l23-9c24-54 49-107 74-160zm-285 0L661 387h49l39-85h110l-39 85h48l106-225H766zm119 84l-110 1 14-30h110l-14 29zm-692 85H57l-26 56h199l87-188-48-37H137l-26 55h135l-53 114zm1398-169l-26 55h151l-14 29h-151l-26 56h151l-13 29h-151l-26 56h199l88-188-49-37h-133zM589 217h122l26-55H566L461 387h170l26-56H535l54-114zm-202 0h124l26-55H364L259 387h173l26-56H333l14-29h110l26-56-110 1 14-30zm1390-97c-4 0-8 1-12 3s-7 5-9 9c-3 4-4 8-4 13 0 4 1 8 4 12 2 4 5 7 9 9s8 3 12 3 8-1 12-3 7-5 9-9c3-4 4-8 4-12 0-5-1-9-4-13-2-4-5-7-9-9s-8-3-12-3zm-14 41v-33h17c2 1 4 1 5 2 1 0 2 1 3 3 1 1 1 3 1 5s0 4-2 6c-1 1-4 2-6 3 1 0 1 0 2 1l2 2c0 1 1 2 3 4l3 7h-8l-3-5c-1-4-3-6-4-7s-3-1-5-1h-1v13h-7zm7-19h9c1 0 2-1 3-2v-2-2c-1-1-2-2-3-2h-9v8z"/></g></svg>