<svg id="Layer_1" data-name="Layer 1" xmlns="http://www.w3.org/2000/svg" viewBox="0 0 272.99 224.99"><defs><style>.cls-1{fill:#fff;}</style></defs><title>husarArtboard 1</title><path class="cls-1" d="M145.7,82a32.12,32.12,0,0,0,0,6.64c.84,8.52,4.27,15.5,11.94,20a4.57,4.57,0,0,0,5.19-.08,23.5,23.5,0,0,0,10.76-13.87,37.83,37.83,0,0,0,1.22-12.25c-.1-1.21-.51-1.59-1.79-1.47-4.36.41-8.49-.28-12-3.14-.47-.38-.87-.55-1.42-.1-3.63,3-7.89,3.57-12.37,3.15C146.17,80.73,145.81,80.94,145.7,82Z"/><path class="cls-1" d="M250.83,175.06c-5.18-4.66-8.93-10.42-12.32-16.42s-6.59-12.06-10-18a38.14,38.14,0,0,0-8.92-10.88,16.83,16.83,0,0,0-9.68-3.72,6.22,6.22,0,0,0-1,0c-2,.18-2.1.44-1.35,2.37.06.15.1.3.15.45-5.51-6-13-7.87-20.46-9.74l-9.06-2.26,7.87-6.35L190,106.9c3.16-4.06-2-14-2-14a73,73,0,0,0-1.6-8.65A5.21,5.21,0,0,0,188.66,86c1.44.57,6.51.94,6.55,1,5.94,1,10.68-1.36,15.09-5.5-2.25-1.47-4.22-.7-6.15-.22l-.78-.22c6.73-.59,3.43-4,2.88-7.09l1.56-.34.1-.81-4.31-2.62L207.89,69l-.08-.81-6.63-2.44c5.62.25,5.62.25,6.74-2.07L206.25,63c.72-1.42,1.92-2.71,1.84-3.92-.09-1.43-1.28-2.8-2-4.15l2.75-.76c-1.54-3.4-5-2.93-8.11-4.16,7.45-.35,7.45-.35,8.09-2.1L203,46.28c2.45-.71,6.21.73,5.55-4.24l-3.34-.6,2.69-2.06-2.44-1.81,1.93-1.65c-.85-4.38-4.15-2.11-6.56-2.48l4.23-4.7c-4-1.15-6.5,1.36-9.5,2.11a21,21,0,0,1,3.34-3.57c1.79-1.45,2.51-2.76-.12-4.29l-5.2,4-.29-.26,3.33-5.45a12.54,12.54,0,0,0-2.77-1.12c-1.17-.13-1.71-1.4-2.36-1.53-1-.19-2.18.66-2.93.94l-1.33-2.89L182.76,20a26.75,26.75,0,0,0,.44-3,6.05,6.05,0,0,0-.45-1.76c-.62.3-1.44.44-1.83.93a17.7,17.7,0,0,0-1.56,2.7l-.43-4.51-3.38,2.16a1,1,0,0,0,0-.23c-.09-1-.23-2-.35-3-.8.65-1.87,1.13-2.34,2a22,22,0,0,0-2.92,11.17c0,2.4-.63,3.81,2.62,3.13l-.69,2.49,4.64,1.06c7.09,1.66,11.84,5.69,12.78,13.21a57.15,57.15,0,0,1,.16,8.43c-.15,6.46-.23,12.93-.73,19.37A6,6,0,0,1,185.84,78a4.2,4.2,0,0,1-1,.4,2.41,2.41,0,0,0,0,.31c-3.1-13.18-6.92-14.65-9.18-16.42a14.43,14.43,0,0,1,3.81.05,3,3,0,0,0,3.76-1.31c.37-.5.14-.75-.31-.89a23.77,23.77,0,0,0-2.63-.69,28.76,28.76,0,0,0-8.53-.29L169.6,48.13h0c-.55-2.86-2.63-4.91-6-5.69-.58-.14-1.18-.23-1.83-.35a9,9,0,0,1,7.39,3.16,20.12,20.12,0,0,1,2.78,5.16,9.42,9.42,0,0,0,6,5.51c.22.07.47.22.72,0,0-.49-.48-.6-.79-.81a12.3,12.3,0,0,1-4.49-5.72c-.51-1.2-.95-2.44-1.4-3.66-1.27-3.47-3.88-5.4-7.33-6.34a13.49,13.49,0,0,0-7.88.21l-1.72.54-2.45,1.77c1,1.07,2,2.11,3,3.21a1.91,1.91,0,0,0,.85.61,8.79,8.79,0,0,0-2.46,3,10.2,10.2,0,0,0-1.71,2.91h0s-1.59,3.49-1.15,4.58A9.55,9.55,0,0,0,156.59,62c.11.32,2.77.94,3.6,1.09h1c-.61.39-1.22.8-1.82,1.25l.71,1c.57-.28,1.14-.55,1.72-.81a14.5,14.5,0,0,0-1.07,5.92c-.24-.39-.48-.77-.71-1.17l-.16-.22a1.27,1.27,0,0,1-.37-.43,1.43,1.43,0,0,1-.25-.17,7.19,7.19,0,0,1-1.12-1.34,1.5,1.5,0,0,1-.27-.28,3.34,3.34,0,0,1-.43-.35c-3-3-6.29-5.67-10.37-7.18-5.36-2-10.51-1.36-15.54,1.13a2.35,2.35,0,0,0-.49.45c.14.83.81.73,1.31.78,6.3.56,11.1,4,15.1,8.46a62.56,62.56,0,0,1,4.23,5.32A18.23,18.23,0,0,0,159,71.73a1.79,1.79,0,0,1,2.55.14c4.19,3.4,9.39,4.75,15.91,4.14a2.29,2.29,0,0,1,3,2.46,51.66,51.66,0,0,1-1.66,16.75v0A32.5,32.5,0,0,1,164,114.3a7.34,7.34,0,0,1-3.86,1.22,7.25,7.25,0,0,1-3.68-1.12C146.65,108.68,141.28,99.71,140,87a44.2,44.2,0,0,1,0-9.09c.2-1.85,1.08-2.13,2.55-2a28.56,28.56,0,0,0,7.74-.24c-.39-.52-.77-1.05-1.17-1.57A36,36,0,0,0,139.37,65a16.48,16.48,0,0,0-7.63-2.62,2.2,2.2,0,0,1-2.34-1.91c-.34-1.41-1.28-1.73-2.58-1.07a38.5,38.5,0,0,0-3.28,2.11c.39-1.47,1.74-2.09,2.09-3.29-.42-.69-.9-.32-1.28-.14a14.57,14.57,0,0,0-6.25,5.43,4.84,4.84,0,0,0-1,2.66c.09,2.37-1.07,4.29-1.91,6.35-.61,1.52-1.16,3.07-1.68,4.63l-61-3.83h0l-7.08-.44-1-.07-30.06-1,29.6,3A10.39,10.39,0,0,0,42.32,79c-.31,2.15,0,5.41,3.36,8.74,5.1,5.1-.55,16-.6,16.1l5.77-7.5.38,10.84c.34-.63,8.27-15.52-.6-24.4-1.55-1.55-1.42-2.48-1.38-2.79.25-1.77,2.65-3.71,4-4.56l1.74.11,57.81,3.63-.05.15a70,70,0,0,1-3.23,8.25c-1.2,2.56-1,4.94,1.1,7,2.5,2.46,6.57,2.06,8-1.15a12.54,12.54,0,0,1,5.59-5.67c1.42-.84,2.77-1.81,4.4-2.9a27.62,27.62,0,0,1,1.53,11,20.49,20.49,0,0,1-3.09,9.73c-.3.47-.53,1-.78,1.48-1.61,3.11-2.2,6.29-.87,9.7.61,1.56.37,1.84-1.29,1.85-2.32,0-4.64-.08-7,0a6.67,6.67,0,0,0-6.75,5.08,2.47,2.47,0,0,0,.12,2.08,51,51,0,0,1,4.69,13.56,7.61,7.61,0,0,0,5,5.89c2.89,1.14,5.59,2.76,8.36,4.18,1.16.59,2.3,1.13,3.64.49.72-.34,1.4.08,2.09.27,1.39.38,2.75.85,4.16,1.14,1.63.34,2.52-.37,2.41-2a10,10,0,0,0-2-5.58c-1.47-1.9-3.37-1.89-5.53-.78.12-1.61-.89-2-2-2.39-3.51-1.17-4.59-4.23-5.48-7.34-.33-1.14.52-2.13,1.91-2.24,3.71-.29,7.38-.18,10.62,2a60.61,60.61,0,0,0,17.29,8.17,6,6,0,0,1,.68.2l3.11,7.29-5,3.39c-5-.09-6.52,2.54-6.15,3.73,2.17,1.39,11.62,0,11.62,0l8-2.12a3.26,3.26,0,0,0,.35-2l-.14-.71a45.94,45.94,0,0,1-.42-5.26c1.8.74,3.61,1.47,5.45,2.12a23.13,23.13,0,0,1,4.49,2.26,8,8,0,0,1,4,5.4,10.89,10.89,0,0,0,3.61,5.82,63.67,63.67,0,0,0,24.6,14.48,13,13,0,0,1,7.12,5.36,39.3,39.3,0,0,1,6.92,21.61c.08,3.52,0,7,.39,10.54.27,2.5,1.07,3,3.24,1.74a42.65,42.65,0,0,0,3.75-2.57,2.73,2.73,0,0,0,1.33-2.18,3.29,3.29,0,0,1,1.87-2.84c2.33-1.52,2.43-1.94,1-4.17A3.51,3.51,0,0,1,235,200a3.85,3.85,0,0,0-1.3-4.3,16.45,16.45,0,0,1-5.16-9.54c-.77-5.14-3.17-9.7-4.87-14.51-.81-2.3-2.66-3.72-4.64-5-3.52-2.29-5.88-5.4-6.36-9.68-.25-2.22-.34-4.46-.49-6.69-.21-3.11-.38-6.22-.63-9.33a34,34,0,0,0-2.91-10.84,24.65,24.65,0,0,1,6.65,10.67c1.53,5,2.86,10.16,4.37,15.21,1.75,5.85,3.89,11.53,8,16.23a17.8,17.8,0,0,0,10.65,6,1.8,1.8,0,0,0,1.5-.18c0-.94-.88-1.19-1.44-1.61a26.75,26.75,0,0,1-6-6.15,2.3,2.3,0,0,1-.68-1.68,10.2,10.2,0,0,1,2.48,2.18c4.45,4.24,9.31,7.79,15.27,9.66a26.17,26.17,0,0,0,11.12,1.14v-.48A28.54,28.54,0,0,1,250.83,175.06Zm-72.64-58.19c1.85.47.46.15,0,0Z"/></svg>