<?xml version="1.0" standalone="no"?>
<!DOCTYPE svg PUBLIC "-//W3C//DTD SVG 20010904//EN"
 "http://www.w3.org/TR/2001/REC-SVG-20010904/DTD/svg10.dtd">
<svg version="1.0" xmlns="http://www.w3.org/2000/svg"
 width="512.000000pt" height="512.000000pt" viewBox="0 0 512.000000 512.000000"
 preserveAspectRatio="xMidYMid meet">
<metadata>
Created by potrace 1.11, written by Peter Selinger 2001-2013
</metadata>
<g transform="translate(0.000000,512.000000) scale(0.100000,-0.100000)"
fill="#000000" stroke="none">
<path d="M3243 4365 c-36 -26 -66 -112 -71 -207 -4 -86 -4 -88 18 -88 17 0 21
-4 17 -20 -4 -16 2 -22 36 -30 139 -36 205 -76 245 -147 12 -23 26 -72 31
-112 11 -86 -2 -490 -17 -517 -5 -11 -19 -28 -31 -38 -16 -15 -22 -16 -25 -5
-2 8 -14 44 -26 80 -24 76 -65 146 -104 177 l-27 21 56 -2 c45 -2 60 2 68 15
20 31 -6 42 -108 46 -52 3 -95 6 -95 7 0 2 -9 47 -20 100 -11 54 -18 100 -16
103 3 2 16 -21 31 -52 27 -57 81 -106 117 -106 10 0 18 2 18 4 0 2 -20 23 -43
47 -30 30 -52 66 -71 116 -31 81 -72 125 -133 142 -78 22 -179 9 -225 -29
l-23 -19 33 -34 33 -34 -35 -52 c-46 -68 -62 -124 -45 -162 16 -41 71 -86 121
-100 24 -6 38 -14 31 -16 -16 -6 -5 -33 14 -33 10 0 13 -6 9 -16 -3 -9 -6 -22
-6 -31 0 -8 -30 13 -71 51 -40 37 -100 80 -137 98 -59 29 -76 33 -152 33 -58
0 -100 -6 -132 -18 -49 -19 -62 -42 -30 -50 16 -4 16 -5 -1 -6 -10 -1 -25 12
-35 29 -18 32 -57 41 -81 18 -11 -11 -11 -9 -2 9 7 14 7 24 1 28 -27 17 -146
-86 -155 -134 -10 -49 -23 -96 -47 -159 l-23 -62 -55 5 c-129 13 -1199 75
-1459 85 -390 15 -389 7 4 -31 121 -12 221 -22 223 -24 1 -1 -2 -14 -8 -29
-13 -35 -13 -97 0 -131 6 -15 27 -47 47 -72 50 -60 55 -119 20 -223 -14 -41
-24 -76 -23 -78 2 -1 26 27 55 64 l51 67 0 -99 c1 -88 2 -97 15 -80 23 31 55
137 61 207 8 84 -13 159 -62 224 -42 54 -40 82 8 118 l27 20 523 -32 c288 -17
531 -33 540 -34 15 -2 13 -12 -17 -87 -44 -108 -45 -151 -6 -191 24 -23 38
-29 73 -29 48 0 60 8 107 76 26 37 146 123 156 112 3 -2 10 -36 17 -76 16 -97
1 -182 -49 -276 -33 -63 -37 -79 -37 -141 0 -38 2 -77 4 -85 4 -12 -13 -16
-102 -20 -95 -4 -109 -8 -132 -29 -14 -13 -30 -38 -36 -56 -9 -27 -6 -41 19
-96 16 -36 40 -107 54 -157 14 -51 33 -102 43 -113 32 -36 229 -129 271 -129
21 0 60 -7 87 -15 69 -21 86 -13 86 36 0 45 -31 113 -55 123 -9 3 -30 6 -46 6
-17 0 -35 5 -42 10 -7 6 -28 20 -47 33 -21 13 -45 42 -59 71 -34 69 -24 81 66
80 58 0 77 -5 119 -29 97 -57 234 -124 288 -141 58 -18 53 -12 103 -131 7 -17
-76 -69 -121 -76 -76 -12 -105 -71 -41 -83 76 -14 318 28 337 59 4 7 4 38 1
69 -3 32 -3 58 0 58 3 0 37 -13 76 -29 102 -42 136 -70 161 -138 45 -123 243
-273 473 -359 121 -45 163 -82 220 -191 53 -102 77 -203 83 -358 7 -182 10
-195 38 -195 37 0 118 60 130 97 6 17 24 41 39 54 25 19 28 27 22 53 -4 17 -9
56 -12 86 -4 44 -12 62 -39 92 -44 50 -73 107 -85 174 -10 57 -82 254 -104
287 -7 10 -36 35 -64 56 -104 78 -116 109 -131 327 -6 93 -18 196 -26 228 -8
32 -12 61 -10 64 3 2 18 -17 34 -44 30 -48 46 -94 122 -349 53 -179 99 -273
170 -345 56 -58 139 -100 195 -100 36 0 31 14 -20 56 -25 20 -60 55 -78 78
-28 36 -24 34 35 -19 126 -114 238 -165 381 -173 48 -2 87 -1 87 4 0 5 -30 24
-67 43 -84 44 -191 149 -265 261 -31 47 -109 181 -175 299 -168 304 -260 398
-409 417 -39 5 -54 3 -65 -9 -12 -13 -18 -12 -47 9 -56 43 -152 82 -292 119
-74 20 -145 40 -158 43 -20 6 -14 13 59 72 123 98 139 120 139 185 0 34 -11
85 -29 137 -16 46 -33 106 -38 134 l-9 50 29 -14 c20 -10 66 -15 141 -16 122
-1 162 11 236 74 l35 29 -33 13 c-18 7 -30 18 -28 25 3 6 0 28 -5 48 -8 26 -7
41 0 48 18 18 13 31 -22 51 l-32 19 33 9 c44 12 40 33 -10 51 -42 15 -42 15
-12 16 39 1 62 26 47 49 -7 13 -6 25 5 48 13 28 13 35 -2 64 -17 34 -14 50 10
50 37 0 0 47 -51 64 l-40 14 47 7 c28 4 49 13 53 22 7 19 8 18 -30 30 l-30 11
27 10 c27 11 46 51 33 71 -3 6 -18 11 -32 11 l-25 0 23 20 c24 20 24 20 5 35
-16 12 -17 18 -8 27 17 17 15 44 -5 63 -12 13 -26 15 -57 10 l-41 -6 38 38
c20 22 37 42 37 46 0 13 -80 7 -116 -8 l-36 -15 36 40 c38 43 43 59 24 78 -17
17 -43 15 -58 -4 -8 -8 -22 -20 -33 -26 -21 -11 -20 -6 16 45 10 16 18 29 16
30 -37 24 -112 48 -133 43 -18 -4 -26 -2 -26 6 0 7 -4 19 -9 27 -8 12 -16 10
-45 -13 l-36 -27 0 35 c0 44 -11 51 -44 25 l-25 -20 -7 26 c-7 30 -8 30 -39 9
-24 -16 -25 -15 -25 4 0 28 -13 34 -37 17z m-638 -915 c3 -6 -1 -7 -9 -4 -18
7 -21 14 -7 14 6 0 13 -4 16 -10z m134 -105 c31 -33 66 -73 77 -89 l21 -28 47
20 c26 12 61 31 78 43 25 18 34 20 47 10 9 -6 45 -26 81 -43 57 -28 77 -32
159 -35 62 -2 98 -7 103 -15 14 -20 2 -235 -16 -303 -38 -143 -118 -260 -232
-341 -90 -64 -122 -67 -199 -17 -180 118 -275 310 -275 554 0 71 4 110 12 115
6 4 36 6 67 5 31 0 69 2 85 7 l29 8 -50 60 c-28 33 -73 77 -102 99 -28 21 -51
41 -51 43 0 12 71 -43 119 -93z"/>
<path d="M2974 3199 c-14 -23 -101 -52 -174 -58 l-75 -6 1 -95 c1 -168 61
-302 173 -384 67 -50 100 -55 153 -23 58 34 130 112 163 178 41 79 71 280 47
315 -4 6 -42 14 -85 17 -62 4 -89 12 -132 36 -62 35 -61 35 -71 20z"/>
</g>
</svg>
